Coordinates
version=1
nRows=27
nColumns=19
inDegrees=yes

Units are S.I. units (second, meters, Newtons, ...)
If the header above contains a line with 'inDegrees', this indicates whether rotational values are in degrees (yes) or radians (no).

endheader
time	subtalar_angle_l	subtalar_angle_r	pelvis_list	pelvis_rotation	pelvis_tilt	pelvis_tx	pelvis_ty	pelvis_tz	hip_flexion_l	hip_adduction_l	hip_rotation_l	hip_flexion_r	hip_adduction_r	hip_rotation_r	knee_flexion_l	knee_flexion_r	ankle_angle_l	ankle_angle_r
      2.02000000	     12.25807867	     14.80583730	     84.97017590	     -0.63054295	      3.07525335	      0.39038040	     -0.78640504	      0.73262932	     26.07812219	      3.73073606	     -0.64290055	     -9.17775713	     12.65609140	     15.92730066	    -53.78620324	     -9.12924433	      6.04521867	      6.33218019
      2.03000000	     12.33921765	     14.86126345	     84.97602640	     -1.27175427	      3.22177823	      0.40140466	     -0.78624226	      0.73146497	     27.11580364	      3.62262494	     -0.87303438	    -10.17627605	     12.58622576	     16.51408905	    -51.57633592	     -9.49507033	      6.05642655	      6.61237191
      2.04000000	     12.55404712	     14.91110659	     84.99206187	     -1.93065042	      3.41546044	      0.41271958	     -0.78602577	      0.73017261	     27.88124838	      3.51439819	     -1.08591378	    -11.22794505	     12.48915509	     17.10291243	    -49.08061365	     -9.91126327	      5.93588505	      6.92433315
      2.05000000	     12.87398596	     14.95295949	     85.02545839	     -2.60003264	      3.66989215	      0.42436723	     -0.78576743	      0.72874383	     28.34686387	      3.39594294	     -1.27883832	    -12.32640518	     12.36087400	     17.64263909	    -46.33642539	    -10.41769676	      5.69081718	      7.22189877
      2.06000000	     13.20879017	     14.99233544	     85.08386875	     -3.27224766	      3.98498924	      0.43638511	     -0.78547209	      0.72717079	     28.50737169	      3.25222347	     -1.45739180	    -13.45641787	     12.19932318	     18.11787864	    -43.39724099	    -11.04821026	      5.38181403	      7.46060960
      2.07000000	     13.52788226	     15.02461746	     85.17165326	     -3.94280999	      4.36038948	      0.44881685	     -0.78515064	      0.72545168	     28.36663672	      3.07665017	     -1.62819192	    -14.61168431	     12.00304305	     18.51670620	    -40.33660551	    -11.81512146	      5.01739215	      7.65646917
      2.08000000	     13.79061630	     15.05230917	     85.29361158	     -4.59811775	      4.80770930	      0.46167394	     -0.78481057	      0.72357261	     27.93597199	      2.85831199	     -1.80153724	    -15.78789686	     11.77572797	     18.81336247	    -37.25443145	    -12.74572900	      4.63385515	      7.79921508
      2.09000000	     13.99321445	     15.07950955	     85.46089647	     -5.23633865	      5.31969373	      0.47497470	     -0.78445372	      0.72154310	     27.25160920	      2.58842950	     -1.97006212	    -16.96400190	     11.50805746	     18.96884722	    -34.25916564	    -13.85266578	      4.21638496	      7.89393244
      2.10000000	     14.11012402	     15.10093676	     85.68492113	     -5.82596653	      5.88100593	      0.48868492	     -0.78409408	      0.71936978	     26.37490786	      2.23842949	     -2.17184668	    -18.09467595	     11.19873237	     18.90026322	    -31.47110333	    -15.16196779	      3.85881436	      7.90971649
      2.11000000	     14.14377681	     15.12934425	     85.99086642	     -6.36805387	      6.48361442	      0.50278354	     -0.78372082	      0.71709236	     25.35878308	      1.79482513	     -2.36250466	    -19.15130083	     10.81940202	     18.55848217	    -29.00118702	    -16.67697325	      3.53005406	      7.84492780
      2.12000000	     14.06710983	     15.19391104	     86.39883976	     -6.84789488	      7.09569779	      0.51721120	     -0.78332376	      0.71476230	     24.28244612	      1.23122209	     -2.53835836	    -20.07113947	     10.34671268	     17.87017022	    -26.94411632	    -18.40582040	      3.23468877	      7.67374067
      2.13000000	     13.15340724	     16.04581126	     86.93339475	     -7.25368301	      7.63928613	      0.53189833	     -0.78287753	      0.71248577	     23.23324932	      0.50366369	     -2.75993236	    -20.74249818	      9.74351955	     16.74595313	    -25.31210677	    -20.34116714	      2.62010504	      7.16880472
      2.14000000	     13.06322085	     15.94681225	     87.60030005	     -7.57176587	      8.11942409	      0.54676389	     -0.78237224	      0.71027536	     22.28763447	     -0.38124775	     -2.90952692	    -21.16434946	      8.99722411	     15.25098327	    -24.22811521	    -22.47421973	      2.69435772	      6.87177772
      2.15000000	     12.11843855	     16.79141981	     88.41099612	     -7.80052060	      8.52142859	      0.56176206	     -0.78177480	      0.70825632	     21.41079071	     -1.46310445	     -3.11650562	    -21.31895186	      8.06919656	     13.32989730	    -23.59419638	    -24.75777418	      2.93404213	      5.75787851
      2.16000000	     11.40344562	     17.33727399	     89.35691079	     -7.94388110	      8.76200113	      0.57680128	     -0.78106872	      0.70647754	     20.72264058	     -2.71484181	     -3.26260997	    -21.10584447	      6.95327819	     11.05049070	    -23.40449825	    -27.20769851	      3.17650235	      4.87616544
      2.17000000	     10.78279270	     17.74826967	     90.41732091	     -8.00024925	      8.91673933	      0.59185376	     -0.78026083	      0.70499247	     20.12229990	     -4.11275720	     -3.33500615	    -20.65045374	      5.65818429	      8.52350824	    -23.57746780	    -29.74770947	      3.59360637	      3.80664061
      2.18000000	     10.19148018	     18.11261923	     91.57399532	     -7.98505906	      8.97495339	      0.60686907	     -0.77934011	      0.70387692	     19.57649896	     -5.63448564	     -3.33980805	    -19.96103926	      4.19394530	      5.84510802	    -23.97670368	    -32.34605650	      4.10956408	      2.62441377
      2.19000000	      9.63848243	     18.42348317	     92.77880689	     -7.88761228	      8.95737457	      0.62178963	     -0.77833334	      0.70316228	     19.03649064	     -7.22545169	     -3.27800565	    -19.08397568	      2.61113229	      3.07846134	    -24.49370436	    -34.96995958	      4.69097381	      1.38187851
      2.20000000	      9.19082491	     18.61347691	     93.99992505	     -7.72220987	      8.84776916	      0.63656014	     -0.77725339	      0.70292615	     18.46061877	     -8.84491702	     -3.17455133	    -18.02251675	      0.95547841	      0.33689690	    -24.96388923	    -37.58633670	      5.29790351	      0.18847446
      2.21000000	      8.87037163	     18.67414068	     95.19947809	     -7.50017955	      8.65391425	      0.65113081	     -0.77612317	      0.70321733	     17.80022949	    -10.44209563	     -3.04552396	    -16.80007553	     -0.71381961	     -2.28570017	    -25.25934570	    -40.16192935	      5.88478453	     -0.87720996
      2.22000000	      8.68772684	     18.61560588	     96.33160739	     -7.22663098	      8.37411177	      0.66544723	     -0.77497276	      0.70407270	     17.02187755	    -11.96291527	     -2.93497826	    -15.41998973	     -2.32542493	     -4.72523724	    -25.27502661	    -42.66946579	      6.41531091	     -1.75987630
      2.23000000	      8.72329319	     18.38505332	     97.39119832	     -6.93315665	      8.06712627	      0.67949576	     -0.77380822	      0.70550310	     16.03005890	    -13.38817784	     -2.85473868	    -13.94148364	     -3.84767229	     -6.88753788	    -24.90056979	    -45.08305930	      6.64450473	     -2.08886419
      2.24000000	      8.79398899	     18.17594430	     98.28588572	     -6.58551085	      7.64844048	      0.69321229	     -0.77268410	      0.70749145	     14.92637551	    -14.63698693	     -2.91506242	    -12.27854712	     -5.16066333	     -8.79981363	    -24.17097374	    -47.36879195	      6.93519739	     -2.45063797
      2.25000000	      8.94286609	     17.96113766	     99.00913363	     -6.21327153	      7.18115890	      0.70661908	     -0.77162053	      0.70999771	     13.64870619	    -15.67694464	     -3.06767714	    -10.49579055	     -6.23792304	    -10.41499605	    -23.05556252	    -49.49077561	      7.18075171	     -2.70483280
      2.26000000	      9.19515070	     17.73077738	     99.54712365	     -5.82447465	      6.70874568	      0.71969418	     -0.77061108	      0.71291023	     12.18807745	    -16.49918533	     -3.36536922	     -8.62519519	     -7.04918548	    -11.71552168	    -21.61288854	    -51.44846714	      7.33497858	     -2.79121377
      2.27000000	      9.55961941	     17.47920403	     99.89427698	     -5.42613429	      6.26274632	      0.73246412	     -0.76967298	      0.71614946	     10.52973586	    -17.09561994	     -3.83363418	     -6.70577990	     -7.57603299	    -12.70097111	    -19.86405171	    -53.20816304	      7.36534872	     -2.66959418
      2.28000000	     10.31597917	     16.95458247	    100.04356569	     -5.02440961	      5.91131090	      0.74494702	     -0.76882135	      0.71957869	      8.66688520	    -17.44454670	     -4.40408738	     -4.81910967	     -7.79046723	    -13.35557976	    -17.90317139	    -54.74938191	      7.03906533	     -1.93357932
